# xmcd
#
# Track frame offsets:
#	150
#	14565
#	25217
#	35805
#	47855
#	57260
#	71000
#	82120
#	92635
#	108707
#	122582
#	135300
#	148072
#	157347
#	168117
#	181127
#	194512
#	204195
#	216937
#	227575
#	242355
#	253925
#	263795
#	277790
#
# Disc length: 3886 seconds
#
# Revision: 0
# Processed by: cddbd v1.5.2PL0 Copyright (c) Steve Scherf et al.
# Submitted via: dBpowerAMP V4.0
#
DISCID=5d0f2c18
DTITLE=Tenavatähti - 1991
DYEAR=1900
DGENRE=
TTITLE0=Kesäyö/Nadja lindeman
TTITLE1=La bamba/Jouni Isoherrala
TTITLE2=Villihevosia/Jenni Salonen
TTITLE3=Lassen koira/Laura Kemppainen
TTITLE4=Tipi-tii/Eeva-leena holkeri
TTITLE5=Vanhoja poikia viiksekkäitä/Timo hynynen
TTITLE6=Kuningaskoobra/Marko muli
TTITLE7=Koivu ja sydän/Jenni viitalo
TTITLE8=Lähtevien laivojen satama/Johanna rantala
TTITLE9=Vanhan veräjän luona/Petra kämä
TTITLE10=Elämää juoksuhaudoissa/Matias sassali
TTITLE11=Ranskalaiset korot/Susanna suckharoen
TTITLE12=Voihan pojat/Karoliina moilanen
TTITLE13=Hymyhuulet/Kristiina niemi
TTITLE14=Minttu ja ville/ Petra kääriäinen
TTITLE15=Satumaa/Leif lindeman
TTITLE16=Minne tuuli kuljettaa/Anna ollila
TTITLE17=Jätkän humppa/Reini kerttula
TTITLE18=Sköna människor/Christopher romberg
TTITLE19=Pidä kii/Alexandra babizin
TTITLE20=Varrella virtaa/Laura jurvanen
TTITLE21=Katinka/Katja lingren
TTITLE22=Muurari/oula salokannel
TTITLE23=Lazzarella/Karoliina lehtinen
EXTD=
EXTT0=
EXTT1=
EXTT2=
EXTT3=
EXTT4=
EXTT5=
EXTT6=
EXTT7=
EXTT8=
EXTT9=
EXTT10=
EXTT11=
EXTT12=
EXTT13=
EXTT14=
EXTT15=
EXTT16=
EXTT17=
EXTT18=
EXTT19=
EXTT20=
EXTT21=
EXTT22=
EXTT23=
PLAYORDER=
